<?xml version="1.0" encoding="UTF-8"?>
<svg width="120px" height="120px" viewBox="0 0 120 120" version="1.1" xmlns="http://www.w3.org/2000/svg" xmlns:xlink="http://www.w3.org/1999/xlink">
    <!-- Generator: Sketch 42 (36781) - http://www.bohemiancoding.com/sketch -->
    <title>Icon-4</title>
    <desc>Created with Sketch.</desc>
    <defs></defs>
    <g id="Admin" stroke="none" stroke-width="1" fill="none" fill-rule="evenodd">
        <g id="Icon-4" fill-rule="nonzero" fill="#000000">
            <path d="M92.140625,76.798419 L38.234375,76.798419 C35.0046875,76.798419 32.375,74.1953063 32.375,70.993083 L32.375,40.805336 C32.375,37.6054348 35.0046875,35 38.234375,35 L92.140625,35 C95.3726563,35 98,37.6054348 98,40.805336 L98,70.993083 C98,74.1953063 95.3726563,76.798419 92.140625,76.798419 Z M38.234375,39.6442688 C37.5898438,39.6442688 37.0625,40.1644269 37.0625,40.805336 L37.0625,70.993083 C37.0625,71.63167 37.5875,72.1541502 38.234375,72.1541502 L92.140625,72.1541502 C92.7851562,72.1541502 93.3125,71.63167 93.3125,70.993083 L93.3125,40.805336 C93.3125,40.166749 92.7851562,39.6442688 92.140625,39.6442688 L38.234375,39.6442688 Z M82.7726563,86.0869565 L28.8523438,86.0869565 C25.625,86.0869565 23,83.486166 23,80.288587 L23,50.0869071 C23,46.8893281 25.625,44.2885375 28.8523438,44.2885375 L32.375,44.2885375 C33.66875,44.2885375 34.71875,45.3288538 34.71875,46.6106719 C34.71875,47.8924901 33.66875,48.9328063 32.375,48.9328063 L28.8523438,48.9328063 C28.2101563,48.9328063 27.6875,49.4506423 27.6875,50.0869071 L27.6875,80.288587 C27.6875,80.9248518 28.2101563,81.4426877 28.8523438,81.4426877 L82.7726563,81.4426877 C83.4148438,81.4426877 83.9375,80.9248518 83.9375,80.288587 L83.9375,74.4762846 C83.9375,73.1921443 84.9851563,72.1541502 86.28125,72.1541502 C87.5773438,72.1541502 88.625,73.1921443 88.625,74.4762846 L88.625,80.288587 C88.625,83.486166 86,86.0869565 82.7726563,86.0869565 Z M86.28125,58.2213439 C85.671875,58.2213439 85.0601563,57.9659091 84.6171875,57.5479249 C84.1929688,57.1067194 83.9375,56.5029644 83.9375,55.8992095 C83.9375,55.2954545 84.1929688,54.6916996 84.6171875,54.2504941 C85.5078125,53.3913043 87.0546875,53.3913043 87.9453125,54.2504941 C88.3671875,54.6916996 88.625,55.2954545 88.625,55.8992095 C88.625,56.5029644 88.3671875,57.1067194 87.9453125,57.5479249 C87.5,57.9659091 86.890625,58.2213439 86.28125,58.2213439 Z M44.09375,58.2213439 C43.484375,58.2213439 42.875,57.9659091 42.4296875,57.5479249 C42.0078125,57.1067194 41.75,56.5029644 41.75,55.8992095 C41.75,55.2954545 42.0078125,54.6916996 42.4296875,54.2504941 C43.3203125,53.3913043 44.8671875,53.3913043 45.7578125,54.2504941 C46.1796875,54.6916996 46.4375,55.2954545 46.4375,55.8992095 C46.4375,56.5029644 46.1796875,57.1067194 45.7578125,57.5479249 C45.3125,57.9659091 44.703125,58.2213439 44.09375,58.2213439 Z M69.6804687,67.5098814 L58.15625,67.5098814 C56.8625,67.5098814 55.8125,66.4718874 55.8125,65.187747 C55.8125,63.9036067 56.8625,62.8656126 58.15625,62.8656126 L69.6804687,62.8656126 C71.0820312,62.8656126 72.21875,61.8229743 72.21875,60.5434783 C72.21875,59.2639822 71.0820312,58.2213439 69.6804687,58.2213439 L60.5,58.2213439 C56.515625,58.2213439 53.2742187,55.095751 53.2742187,51.2549407 C53.2742187,47.4141304 56.515625,44.2885375 60.5,44.2885375 L72.21875,44.2885375 C73.5148437,44.2885375 74.5625,45.3288538 74.5625,46.6106719 C74.5625,47.8924901 73.5148437,48.9328063 72.21875,48.9328063 L60.5,48.9328063 C59.0984375,48.9328063 57.9617187,49.9754447 57.9617187,51.2549407 C57.9617187,52.5344368 59.1007812,53.5770751 60.5,53.5770751 L69.6804687,53.5770751 C73.6648437,53.5770751 76.90625,56.702668 76.90625,60.5434783 C76.90625,64.3842885 73.6648437,67.5098814 69.6804687,67.5098814 Z M62.84375,41.9664032 L67.53125,41.9664032 L67.53125,69.8320158 L62.84375,69.8320158 L62.84375,41.9664032 Z" id="Shape"></path>
        </g>
    </g>
</svg>