<?xml version="1.0" encoding="UTF-8"?>
<svg width="120px" height="120px" viewBox="0 0 120 120" version="1.1" xmlns="http://www.w3.org/2000/svg" xmlns:xlink="http://www.w3.org/1999/xlink">
    <!-- Generator: Sketch 42 (36781) - http://www.bohemiancoding.com/sketch -->
    <title>Icon-3</title>
    <desc>Created with Sketch.</desc>
    <defs></defs>
    <g id="Admin" stroke="none" stroke-width="1" fill="none" fill-rule="evenodd">
        <g id="Icon-3" fill-rule="nonzero" fill="#000000">
            <path d="M64.3548387,50.936875 L70.2502688,50.936875 C70.6987455,50.936875 71.065681,50.57125 71.065681,50.124375 L71.065681,44.25 C71.065681,43.803125 70.6987455,43.4375 70.2502688,43.4375 L64.3548387,43.4375 C63.906362,43.4375 63.5394265,43.803125 63.5394265,44.25 L63.5394265,50.124375 C63.5394265,50.57125 63.906362,50.936875 64.3548387,50.936875 Z" id="Shape"></path>
            <path d="M55.5736649,43.4375 L49.6774194,43.4375 C49.2289427,43.4375 48.8620072,43.803125 48.8620072,44.25 L48.8620072,50.124375 C48.8620072,50.57125 49.2289427,50.936875 49.6774194,50.936875 L55.5736649,50.936875 C56.0221416,50.936875 56.3890771,50.57125 56.3890771,50.124375 L56.3890771,44.25 C56.3890771,43.803125 56.0221416,43.4375 55.5736649,43.4375 Z" id="Shape"></path>
            <path d="M64.3548387,63.1251875 L70.2502688,63.1251875 C70.6987455,63.1251875 71.065681,62.7595625 71.065681,62.3126875 L71.065681,56.4375 C71.065681,55.990625 70.6987455,55.625 70.2502688,55.625 L64.3548387,55.625 C63.906362,55.625 63.5394265,55.990625 63.5394265,56.4375 L63.5394265,62.3126875 C63.5394265,62.7595625 63.906362,63.1251875 64.3548387,63.1251875 Z" id="Shape"></path>
            <path d="M55.5736649,55.625 L49.6774194,55.625 C49.2289427,55.625 48.8620072,55.990625 48.8620072,56.4375 L48.8620072,62.3126875 C48.8620072,62.7595625 49.2289427,63.1251875 49.6774194,63.1251875 L55.5736649,63.1251875 C56.0221416,63.1251875 56.3890771,62.7595625 56.3890771,62.3126875 L56.3890771,56.4375 C56.3890771,55.990625 56.0221416,55.625 55.5736649,55.625 Z" id="Shape"></path>
            <path d="M55.5736649,67.8125 L49.6774194,67.8125 C49.2289427,67.8125 48.8620072,68.178125 48.8620072,68.625 L48.8620072,74.5001875 C48.8620072,74.9470625 49.2289427,75.3126875 49.6774194,75.3126875 L55.5736649,75.3126875 C56.0221416,75.3126875 56.3890771,74.9470625 56.3890771,74.5001875 L56.3890771,68.625 C56.3890771,68.1789375 56.0221416,67.8125 55.5736649,67.8125 Z" id="Shape"></path>
            <path d="M84.3650538,85.500625 L82.6714427,85.500625 L82.6714427,31.3125625 C82.6714427,30.8656875 82.3045072,30.5000625 81.8560305,30.5000625 L75.1443728,30.5000625 L75.1443728,28.8125 C75.1443728,28.365625 74.7774373,28 74.3289606,28 L45.8515054,28 C45.4030287,28 45.0360932,28.365625 45.0360932,28.8125 L45.0360932,30.5000625 L38.3252509,30.5000625 C37.8767742,30.5000625 37.5098387,30.8656875 37.5098387,31.3125625 L37.5098387,85.500625 L35.8154122,85.500625 C35.3669355,85.500625 35,85.86625 35,86.313125 L35,92.1875 C35,92.634375 35.3669355,93 35.8154122,93 L84.3650538,93 C84.8135305,93 85.1804659,92.634375 85.1804659,92.1875 L85.1804659,86.313125 C85.1804659,85.86625 84.8127151,85.500625 84.3650538,85.500625 Z M42.5270699,35.5001875 L45.8515054,35.5001875 L74.3281452,35.5001875 L77.6525806,35.5001875 L77.6525806,85.4998125 L71.3804301,85.4998125 L71.3804301,71.376125 C71.3804301,70.8943125 70.9849552,70.50025 70.5014158,70.50025 L64.73319,70.50025 C64.2496505,70.50025 63.8541756,70.8943125 63.8541756,71.376125 L63.8541756,85.4998125 L42.5270699,85.4998125 L42.5270699,35.5001875 Z" id="Shape"></path>
        </g>
    </g>
</svg>