<?xml version="1.0" encoding="UTF-8"?>
<svg width="120px" height="120px" viewBox="0 0 120 120" version="1.1" xmlns="http://www.w3.org/2000/svg" xmlns:xlink="http://www.w3.org/1999/xlink">
    <!-- Generator: Sketch 42 (36781) - http://www.bohemiancoding.com/sketch -->
    <title>Icon-2</title>
    <desc>Created with Sketch.</desc>
    <defs></defs>
    <g id="Admin" stroke="none" stroke-width="1" fill="none" fill-rule="evenodd">
        <g id="Icon-2" fill-rule="nonzero" fill="#ffffff">
            <path d="M60.3035714,28 L46.858631,39.9940476 L46.858631,35.0610119 L39.4107143,35.0610119 L39.4107143,46.5714286 L22,61.9508929 L30.3184524,61.9508929 L30.3184524,93 L90.1919643,93 L90.1919643,61.9508929 L98.5104167,61.9508929 L60.3035714,28 Z M60.3035714,37.9627976 C62.5282738,37.9627976 64.2693452,39.703869 64.2693452,41.9285714 C64.2693452,44.1532738 62.5282738,45.8943452 60.3035714,45.8943452 C58.078869,45.8943452 56.3377976,44.1532738 56.3377976,41.9285714 C56.3377976,39.703869 58.078869,37.9627976 60.3035714,37.9627976 Z M68.9122024,65.6264881 C68.1383929,65.6264881 67.3645833,64.9494048 67.2678571,64.1755952 L65.8169643,53.4389881 L65.8169643,66.0133929 L65.8169643,82.5535714 C65.8169643,83.9077381 64.7529762,84.9717262 63.3988095,84.9717262 C62.0446429,84.9717262 60.9806548,83.9077381 60.9806548,82.5535714 L60.9806548,66.7872024 C60.9806548,66.4002976 60.6904762,66.110119 60.3035714,66.110119 C59.9166667,66.110119 59.6264881,66.4002976 59.6264881,66.7872024 L59.6264881,82.5535714 C59.6264881,83.9077381 58.5625,84.9717262 57.2083333,84.9717262 C55.8541667,84.9717262 54.7901786,83.9077381 54.7901786,82.5535714 L54.7901786,66.110119 L54.7901786,53.5357143 L53.0491071,64.3690476 C52.8556548,65.046131 52.2752976,65.6264881 51.5014881,65.6264881 C50.5342262,65.6264881 49.8571429,64.7559524 49.953869,63.8854167 L51.985119,50.0535714 C52.1785714,48.0223214 54.016369,46.5714286 55.9508929,46.5714286 L64.4627976,46.5714286 C66.4940476,46.5714286 68.1383929,48.1190476 68.4285714,50.0535714 L70.3630952,63.6919643 C70.6532738,64.7559524 69.8794643,65.6264881 68.9122024,65.6264881 Z" id="Shape"></path>
        </g>
    </g>
</svg>