<?xml version="1.0" encoding="UTF-8"?>
<svg width="120px" height="120px" viewBox="0 0 120 120" version="1.1" xmlns="http://www.w3.org/2000/svg" xmlns:xlink="http://www.w3.org/1999/xlink">
    <!-- Generator: Sketch 42 (36781) - http://www.bohemiancoding.com/sketch -->
    <title>Icon-1</title>
    <desc>Created with Sketch.</desc>
    <defs></defs>
    <g id="Admin" stroke="none" stroke-width="1" fill="none" fill-rule="evenodd">
        <g id="Icon-1" fill-rule="nonzero" fill="#ffffff">
            <path d="M93.7078946,73.3594937 C92.6595324,72.2596549 90.9842948,72.0413725 89.6886,72.835782 C84.5788535,75.9640865 74.5201321,81.9623311 74.5201321,81.9623311 C73.2642248,82.7242453 71.8300007,83.1432302 70.361036,83.1773422 L58.9322594,83.2611361 L58.9322594,83.2611361 C58.5373513,83.2433861 58.2216236,82.9268762 58.2052424,82.5323181 C58.1888612,82.1377599 58.4772682,81.7962197 58.8693487,81.7458636 L70.5637483,81.5363789 C72.0250281,81.4884672 73.1912461,80.3029089 73.2136506,78.8425312 C73.2360551,77.3821534 72.106753,76.1614512 70.6476292,76.0688289 L63.7274525,75.5590828 C60.8312513,75.3325498 57.9753158,74.741309 55.2275184,73.7994115 C46.434001,70.5523991 41.2473636,72.2212936 38.4513326,73.1011293 C37.8213813,72.1163118 36.7120275,71.5435629 35.5434604,71.5998224 L29.4970435,71.8721525 C28.5434227,71.8884629 27.6362842,72.2865623 26.979175,72.9771238 C26.3220657,73.6676853 25.9700105,74.5928828 26.0020048,75.5451172 L26.7010125,88.9521364 C26.8355827,90.9260098 28.5409661,92.4205717 30.5175948,92.2969084 L36.5640117,92.0175955 C37.6906659,91.9666874 38.7086915,91.3310819 39.2482015,90.3417181 C39.6741987,90.7136292 40.2202663,90.9194318 40.7860185,90.9212924 L40.8908697,90.9212924 L66.5584339,92.6251011 L67.5440348,92.6251011 C70.9229595,92.6186693 74.2187696,91.5780696 76.9876294,89.6434359 L93.3024701,78.1916069 C94.0638322,77.6630601 94.5550569,76.8277301 94.6465132,75.9060553 C94.7379695,74.9843805 94.420468,74.0689685 93.7777953,73.4013906 L93.7078946,73.3594937 Z M32.7683997,89.1686039 C31.6824275,89.1070992 30.8482283,88.1840492 30.8976351,87.0985835 C30.9470419,86.0131178 31.8616537,85.1695027 32.9487322,85.2067027 C34.0358107,85.2439028 34.8904889,86.1480634 34.8654229,87.2343621 C34.8200012,88.3464907 33.881767,89.2118945 32.7683997,89.1686039 L32.7683997,89.1686039 Z M74.4921718,76.376073 L83.9707167,71.4880973 C85.1051746,70.8648429 86.511117,71.0333809 87.4657554,71.9070666 C83.271709,74.4837281 78.3786548,77.4374621 75.1562291,79.4205837 C75.2948406,78.3595326 75.0601044,77.2833351 74.4921718,76.376073 L74.4921718,76.376073 Z M69.5991176,74.0647588 L78.5394266,70.5733475 C79.4895532,70.1451175 80.5944833,70.2430551 81.4542889,70.831712 L73.1291067,74.9795085 C72.4323655,74.501293 71.6174873,74.2235075 70.7734506,74.1764839 L69.5991176,74.0647588 Z M55.37431,30.1986677 C55.0959428,29.6684485 55.1595497,29.0236944 55.5361709,28.5579577 C55.912792,28.092221 56.5304187,27.8945493 57.1078492,28.0549411 C59.8856688,28.84911 62.7273511,29.4005017 65.6007933,29.7028873 C66.1636833,29.764674 66.6440201,30.1372912 66.8433389,30.6667814 C67.0426577,31.1962716 66.9271162,31.7927329 66.5444537,32.2097206 L65.3491505,34.2277563 L57.1148393,34.2277563 L55.37431,30.1986677 Z M54.738213,70.2730862 L67.830628,70.2730862 C71.4907393,70.2810419 74.8691947,68.3117455 76.6630588,65.1246759 C78.456923,61.9376064 78.3858897,58.0307696 76.4773537,54.9108766 L67.2574416,39.7372032 C68.0497908,39.6629464 68.646825,38.9845154 68.6190158,38.1899986 C68.5912066,37.3954817 67.9481965,36.760364 67.1525905,36.7415724 L54.9828657,36.7415724 C54.1509251,36.7415724 53.476504,37.4152935 53.476504,38.2463706 C53.476504,39.0774478 54.1509251,39.7511689 54.9828657,39.7511689 L55.2974192,39.7511689 L46.0844972,54.9388079 C44.1900643,58.0583221 44.1277113,61.9561536 45.9213975,65.1345437 C47.7150838,68.3129338 51.0857539,70.2773994 54.738213,70.2730862 L54.738213,70.2730862 Z M60.1065925,48.2702124 L60.1065925,47.2088233 C60.0731614,46.7847416 60.2807192,46.3777772 60.6438011,46.1555033 C61.0068829,45.9332294 61.464097,45.9332294 61.8271788,46.1555033 C62.1902607,46.3777772 62.3978185,46.7847416 62.3643875,47.2088233 L62.3643875,48.1096074 C63.0721687,48.1340873 63.7752425,48.2347566 64.4614107,48.4098688 C65.1017647,48.5878213 65.5135602,49.2092161 65.4274421,49.8675995 C65.3413239,50.5259829 64.7835232,51.0208153 64.1188969,51.0284273 C63.9933457,51.027871 63.8685447,51.0090527 63.7484228,50.9725647 C63.0920648,50.7825713 62.4116319,50.6884915 61.7282904,50.6932518 C60.2324138,50.6932518 59.7431084,51.3356715 59.7431084,51.985074 C59.7431084,52.7462016 60.5469673,53.2280164 62.5391394,53.9681956 C65.2862398,54.9388079 66.390672,56.2026988 66.390672,58.2765971 C66.390672,60.3504953 64.9367359,62.0752525 62.2874966,62.5361188 L62.2874966,63.7581127 C62.3209277,64.1821944 62.1133698,64.5891589 61.750288,64.8114328 C61.3872061,65.0337067 60.9299921,65.0337067 60.5669102,64.8114328 C60.2038284,64.5891589 59.9962705,64.1821944 60.0297016,63.7581127 L60.0297016,62.6967237 C59.0941553,62.6554253 58.1681442,62.4910763 57.2756111,62.2079261 C56.6029435,61.9932998 56.2139033,61.2925303 56.3878713,60.6088598 L56.3878713,60.4971346 C56.5359497,59.9174707 57.0612303,59.513828 57.6600654,59.5195395 C57.8100311,59.5213805 57.9587233,59.5473157 58.1004402,59.5963505 C58.9033374,59.8737318 59.7463554,60.0176274 60.5958979,60.0223027 C61.9100324,60.0223027 62.8117524,59.5125566 62.8117524,58.6257382 C62.8117524,57.7389197 62.0708042,57.2291737 60.3652253,56.6216681 C57.897728,55.7907122 56.2131193,54.6385465 56.2131193,52.4319746 C56.2061293,50.3441107 57.6390951,48.7520271 60.1065925,48.2702124 Z" id="Shape"></path>
        </g>
    </g>
</svg>